<?xml version="1.0" encoding="UTF-8"?>
<svg version="1.1" viewBox="0 0 1024 1024" width="1024" height="1024" xmlns="http://www.w3.org/2000/svg">
<path transform="translate(379,268)" d="m0 0 8 1 46 12 23 5 13 4 16 8 5 5-2 2h-4v-2l-9-1-14-5-8-2-15-1-25 6-18 6-21 10-14 8-11 8-10 9-9 12-10 17-11 24-7 19-7 25-5 27-3 31-1 31v12l2 33 4 36 5 30 8 33 8 25 8 21 12 26 13 25 3 4-1-5v-20l4-17 8-15 9-10 11-7 9-4 10-3h21l20 6 19 8 14 8 11 7v-3l-2-12v-14l4-14 7-11 10-8 10-4 4-1h19l17 5 21 11 15 10 17 13 22 18 11 11 6 8-4-16-6-19-9-24-10-21-12-22-14-22-14-19-12-14-9-10-10-10-8-7-11-9-16-12-12-8-31-19-16-12-12-11-9-11-8-14-4-14v-15l4-11 8-10 9-7 12-6 15-4 16-1h5l1 2-10 3-15 4-15 6-10 6-8 9-4 9v16l4 12 6 10 7 9 8 7 14 11 15 10 22 13 20 14 17 13 15 14 14 14 9 11 12 15 14 21 9 15 13 24 11 24 9 24 6 22 6 28 1 11-5-5-9-12-12-14-7-7-8-7-7-7-14-11-13-10-11-7-16-9-12-5-9-2h-18l-9 3-7 5-6 8-4 10-1 5v15l4 17 8 18 2 3-4-1-12-11-13-9-15-9-21-10-22-6h-16l-14 4-10 6-10 9-8 15-3 14v19l5 28 2 9-4-2-16-24-10-17-8-16-11-24-10-26-9-30-8-37-4-27-3-32-1-15v-59l3-32 5-28 7-25 8-22-11 7-13 4-3-1 10-9 11-7 10-9 10-16 10-14 3-3-11 1-20 2h-2v-2l8-4 35-12 17-9 10-6 6-3h2v-2l-16-1-20-4-10-4v-3l16 1 29 3h15l28-6 8-2-7-3-16-5-19-9z" fill="#F0A23A"/>
<path transform="translate(733,281)" d="m0 0v3l-5 12v13l5 12 7 8 11 10 8 7 6 7 6 12 1 4v19l-5 13-6 11-13 15-10 14-3 6v7l6 12 4 7 1 3v7l-4 9-7 6-11 5-10 2-9-1-8-7-3-6v-3l5-2 9 1 9-2 2-6-4-7-7-6-6-9v-11l4-11 7-12 12-17 4-9 1-5v-8l-4-12-11-16-4-8-3-15v-12l4-13 7-12 6-8zm0 75 5 11 4 16-1 12-5 13-7 11-7 10-6 10-2 8 1 7 3 4 3-9 4-8 10-17 8-11 9-15 3-10v-9l-2-7-6-8-8-6z" fill="#F0A139"/>
<path transform="translate(384,210)" d="m0 0 11 7 16 12 20 14 13 8 23 13 22 12 18 8-5-4-6-7-8-7-7-8-13-14-1-5 9 5 13 10 11 9 8 8 11 14 6 7 15 7-8-14-1-6 4 2 3 2v2h2l5 5 13 15 8 8 8 7 9 10 10 17 7 8 8 6 20 9 8 4 5 5 4 7 3 19v17l-5 4-2 1h-7l-23-10-19-8-16-5-12-3v-4h13l19 5 20 7 16 7 7 1 1-10-3-17-3-6-15-8-17-8-10-9-4-5-9-14-13-13-14-9-17-9-23-11-31-15-17-9-18-8 21 14-3 1-19-8-10-6-14-11-9-10-7-8-13-15-8-10z" fill="#F0A139"/>
<path transform="translate(785,415)" d="m0 0 3 1h-2l-2 6-5 11-2 8v13l7 20v14l-3 9-6 10-9 10-9 8-10 5-9 3-5 1h-8l-13-3-14-7-10-8-7-7-10-13-7-11-7-9-11-12-17-16-9-11-3-5v-3l4 2 11 8v2l4 2 13 8 22 8 17 6 8 5 6 8-1 3-3 1-25-10-11-4 8 10 12 16 7 7 14 9 12 4 5 1h13l10-4 8-6 6-9 4-12v-9l-3-14v-8l4-13 5-8 9-10z" fill="#F0A138"/>
<path transform="translate(420,370)" d="m0 0h5l-1 2-11 4-11 7-5 4-9 11-5 10-3 11-1 11 3 18 6 16 7 11 8 10 15 15 10 8 17 12 18 13 19 14 28 22 3 2v2l4 2 10 9 11 9 18 18 9 11 7 9v2l-4-2-31-29-11-9-14-12-11-9-18-14-20-15-20-14-18-13-13-11-10-9-9-11-7-10-8-16-4-12-2-11v-18l3-12 7-14 10-11 12-7 10-3z" fill="#F0A23B"/>
<path transform="translate(490,401)" d="m0 0h21l20 4 14 6 16 12 8 10 4 7 3 6 1 4h10l9-4-2-4-1-3-3-1-7-9-5-5-4-6 1-3 5 1 13 11 14 14 1 6-8 7-9 3h-13l-6-2-6-4v-6l-7-11-9-9-14-8-18-6-14-2h-14l-22 3-6 1-1-2 16-8z" fill="#F0A23A"/>
<path transform="translate(340,425)" d="m0 0h1v9l-5 33-2 25v23l2 27 2 18 5 30 7 30 10 36 6 22-1 4-3-4-11-30-6-19-7-29-6-31-4-32-1-16v-28l2-23 4-22 4-16z" fill="#F0A33D"/>
<path transform="translate(352,487)" d="m0 0 2 4 12 34 7 17 10 19 13 23 11 17 10 15 14 20 18 27 6 10-4-2-11-12-9-11-13-17-11-16-9-13-6-11-7-10-15-29-6-13-7-20-4-14-1-7z" fill="#F0A23B"/>
<path transform="translate(696,379)" d="m0 0 4 5 5 10 2 7-1 9-4 10-7 9-6 7-4 6-3 12-4-2-4-5 1-8 8-14 7-7 7-13v-10l-2-15z" fill="#F0A13A"/>
<path transform="translate(428,310)" d="m0 0h11l19 1v2h7l10 4 5 4 1 4-1 1-8-1-8-3-6-1 8 6 11 8 3 3-1 4h-6l-4-3-7-4-8-7-5-5-12-6-11-4v-2z" fill="#F0A33C"/>
<path transform="translate(420,345)" d="m0 0 42 9 18 2v4l-3 2-9 1-16-2-16-5-11-5-6-4z" fill="#F0A43E"/>
<path transform="translate(538,332)" d="m0 0 9 2 12 6 2 4-1 4-7-1-12-7-4-4z" fill="#F0A43E"/>
<path transform="translate(614,388)" d="m0 0 8 1 7 4 1 5-3 3-4-1-7-5-2-3z" fill="#F0A33C"/>
<path transform="translate(342,421)" d="m0 0" fill="#F7CF9B"/>
<path transform="translate(467,281)" d="m0 0 2 1z" fill="#F7CF9B"/>
<path transform="translate(341,424)" d="m0 0" fill="#FEFEFE"/>
</svg>
